<svg xmlns="http://www.w3.org/2000/svg" viewBox="0 0 512 512" fill="none">
  <defs>
    <linearGradient id="pv-bg" x1="256" y1="32" x2="256" y2="480" gradientUnits="userSpaceOnUse">
      <stop stop-color="#4F8EF7"/>
      <stop offset="1" stop-color="#1E4FD6"/>
    </linearGradient>
    <linearGradient id="pv-tag" x1="0" y1="0" x2="1" y2="1">
      <stop stop-color="#FFE566"/>
      <stop offset="1" stop-color="#F5B800"/>
    </linearGradient>
  </defs>
  <rect width="512" height="512" rx="112" fill="url(#pv-bg)"/>
  <path fill="#fff" d="M168 128h88c61.9 0 112 42.5 112 95s-50.1 95-112 95h-40V384H168V128zm72 152c32.6 0 59-20.1 59-45s-26.4-45-59-45h-32v90h32z"/>
  <g transform="translate(118 268) rotate(-12)">
    <path fill="url(#pv-tag)" stroke="#1E4FD6" stroke-width="8" d="M8 8h120l32 48-32 48H8V8z"/>
    <path fill="#1E4FD6" d="M44 36h48v8H44v-8zm0 20h56v8H44v-8zm0 20h40v8H44v-8z"/>
    <circle cx="24" cy="24" r="10" fill="#1E4FD6"/>
  </g>
</svg>
